<?xml version="1.0" standalone="no"?>
<!DOCTYPE svg PUBLIC "-//W3C//DTD SVG 20010904//EN"
 "http://www.w3.org/TR/2001/REC-SVG-20010904/DTD/svg10.dtd">
<svg version="1.0" xmlns="http://www.w3.org/2000/svg"
 width="577.000000pt" height="577.000000pt" viewBox="0 0 577.000000 577.000000"
 preserveAspectRatio="xMidYMid meet">
<metadata>
Created by potrace 1.14, written by Peter Selinger 2001-2017
</metadata>
<g transform="translate(0.000000,577.000000) scale(0.100000,-0.100000)"
fill="#000000" stroke="none">
<path d="M2539 3683 c-24 -8 -51 -21 -59 -28 -8 -7 -127 -88 -265 -180 -137
-92 -269 -185 -293 -207 -95 -89 -121 -172 -121 -382 0 -206 22 -279 108 -368
42 -42 519 -371 600 -412 38 -20 119 -23 153 -5 99 51 120 93 121 249 2 163
-17 203 -129 277 -113 75 -340 228 -361 244 -26 19 -62 -9 307 239 188 127
192 133 193 309 1 109 -2 131 -20 166 -26 49 -48 70 -96 90 -54 22 -89 24
-138 8z"/>
<path d="M3101 3675 c-54 -25 -94 -72 -108 -125 -16 -60 -8 -252 12 -290 24
-47 41 -60 265 -210 111 -74 209 -140 217 -146 13 -9 -1 -21 -73 -70 -466
-313 -435 -281 -439 -458 -1 -61 3 -127 8 -146 26 -100 146 -167 240 -135 48
16 589 379 634 425 45 45 78 103 95 165 18 61 23 308 8 385 -13 72 -55 151
-105 199 -37 37 -527 371 -592 404 -50 26 -108 27 -162 2z"/>
</g>
</svg>
